<?xml version="1.0" standalone="no"?>
<!DOCTYPE svg PUBLIC "-//W3C//DTD SVG 20010904//EN"
 "http://www.w3.org/TR/2001/REC-SVG-20010904/DTD/svg10.dtd">
<svg version="1.0" xmlns="http://www.w3.org/2000/svg"
 width="16.000000pt" height="16.000000pt" viewBox="0 0 16.000000 16.000000"
 preserveAspectRatio="xMidYMid meet">

<g transform="translate(0.000000,16.000000) scale(0.100000,-0.100000)"
fill="#000000" stroke="none">
<path d="M0 80 l0 -80 80 0 80 0 0 80 0 80 -80 0 -80 0 0 -80z m44 38 c-3 -5
-12 -4 -20 3 -7 6 -11 15 -8 21 3 5 12 4 20 -3 7 -6 11 -15 8 -21z m26 2 c0
-27 -3 -30 -32 -29 -27 0 -29 2 -13 8 11 5 23 6 28 4 4 -2 7 -1 6 4 -3 16 1
43 6 43 3 0 5 -13 5 -30z m32 -14 c-3 -5 -1 -7 4 -4 5 3 18 2 29 -3 16 -6 14
-8 -12 -8 -31 -1 -33 1 -32 32 0 26 2 28 8 12 5 -11 6 -24 3 -29z m37 18 c-6
-7 -15 -11 -21 -8 -5 3 -4 12 3 20 6 7 15 11 21 8 5 -3 4 -12 -3 -20z m-70
-86 c0 -27 -2 -29 -8 -13 -5 11 -6 24 -3 29 3 5 1 7 -4 4 -5 -3 -18 -2 -29 3
-16 6 -14 8 13 8 30 1 32 -1 31 -31z m66 23 c-11 -5 -24 -6 -29 -3 -5 3 -7 1
-4 -4 3 -5 2 -18 -3 -29 -6 -16 -8 -14 -8 13 -1 30 1 32 32 31 26 0 28 -2 12
-8z m-96 -37 c-6 -7 -15 -11 -21 -8 -5 3 -4 12 3 20 6 7 15 11 21 8 5 -3 4
-12 -3 -20z m105 -6 c-3 -5 -12 -4 -20 3 -7 6 -11 15 -8 21 3 5 12 4 20 -3 7
-6 11 -15 8 -21z"/>
</g>
</svg>
